{
    "asset" : {
        "generator" : "Khronos glTF Blender I/O v1.6.16",
        "version" : "2.0"
    },
    "extensionsUsed" : [
        "KHR_lights_punctual"
    ],
    "extensionsRequired" : [
        "KHR_lights_punctual"
    ],
    "extensions" : {
        "KHR_lights_punctual" : {
            "lights" : [
                {
                    "color" : [
                        1,
                        1,
                        1
                    ],
                    "intensity" : 358.280029296875,
                    "spot" : {
                        "innerConeAngle" : 0.23506188157262642,
                        "outerConeAngle" : 0.32986724376678467
                    },
                    "type" : "spot",
                    "range" : 32.91999816894531,
                    "name" : "Spot"
                },
                {
                    "color" : [
                        1,
                        1,
                        1
                    ],
                    "intensity" : 309.8800354003906,
                    "spot" : {
                        "innerConeAngle" : 0.23506188157262642,
                        "outerConeAngle" : 0.32986724376678467
                    },
                    "type" : "spot",
                    "range" : 32.91999816894531,
                    "name" : "Spot.001"
                },
                {
                    "color" : [
                        1,
                        1,
                        1
                    ],
                    "intensity" : 882.4000244140625,
                    "type" : "point",
                    "name" : "Light"
                }
            ]
        }
    },
    "scene" : 0,
    "scenes" : [
        {
            "name" : "Scene",
            "nodes" : [
                1,
                3,
                5,
                6,
                7,
                8,
                9
            ]
        }
    ],
    "nodes" : [
        {
            "extensions" : {
                "KHR_lights_punctual" : {
                    "light" : 0
                }
            },
            "name" : "Spot_Orientation",
            "rotation" : [
                -0.7071067690849304,
                0,
                0,
                0.7071067690849304
            ]
        },
        {
            "children" : [
                0
            ],
            "name" : "Spot",
            "rotation" : [
                -0.23391836881637573,
                -0.06441725790500641,
                0.31607764959335327,
                0.917184591293335
            ],
            "scale" : [
                0.26025718450546265,
                0.26025718450546265,
                0.26025718450546265
            ],
            "translation" : [
                -1.4287750720977783,
                1.9343445301055908,
                -1.1604585647583008
            ]
        },
        {
            "extensions" : {
                "KHR_lights_punctual" : {
                    "light" : 1
                }
            },
            "name" : "Spot.001_Orientation",
            "rotation" : [
                -0.7071067690849304,
                0,
                0,
                0.7071067690849304
            ]
        },
        {
            "children" : [
                2
            ],
            "name" : "Spot.001",
            "rotation" : [
                -0.2191748172044754,
                -0.1953984647989273,
                -0.21339240670204163,
                0.9317969083786011
            ],
            "scale" : [
                0.26025718450546265,
                0.26025718450546265,
                0.26025718450546265
            ],
            "translation" : [
                1.120969295501709,
                1.814652681350708,
                -1.0088224411010742
            ]
        },
        {
            "extensions" : {
                "KHR_lights_punctual" : {
                    "light" : 2
                }
            },
            "name" : "Light_Orientation",
            "rotation" : [
                -0.7071067690849304,
                0,
                0,
                0.7071067690849304
            ]
        },
        {
            "children" : [
                4
            ],
            "name" : "Light",
            "rotation" : [
                0.16907575726509094,
                0.7558803558349609,
                -0.27217137813568115,
                0.570947527885437
            ],
            "scale" : [
                1.0478459596633911,
                1.0478459596633911,
                1.0478460788726807
            ],
            "translation" : [
                0.49295228719711304,
                0.4774007797241211,
                1.0174119472503662
            ]
        },
        {
            "name" : "Curve.002",
            "rotation" : [
                0.7071068286895752,
                0,
                0,
                0.7071068286895752
            ]
        },
        {
            "name" : "Curve.003",
            "rotation" : [
                0.7071068286895752,
                0,
                0,
                0.7071068286895752
            ]
        },
        {
            "mesh" : 0,
            "name" : "Curve.004",
            "rotation" : [
                0.7071068286895752,
                0,
                0,
                0.7071068286895752
            ]
        },
        {
            "mesh" : 1,
            "name" : "Curve.006",
            "rotation" : [
                0.7071068286895752,
                0,
                0,
                0.7071068286895752
            ]
        }
    ],
    "materials" : [
        {
            "doubleSided" : true,
            "name" : "SVGMat.002",
            "pbrMetallicRoughness" : {
                "baseColorFactor" : [
                    0.0666259229183197,
                    0.08228273689746857,
                    0.9046613574028015,
                    1
                ],
                "metallicFactor" : 0.3295454680919647,
                "roughnessFactor" : 0.22045454382896423
            }
        }
    ],
    "meshes" : [
        {
            "name" : "Curve.003",
            "primitives" : [
                {
                    "attributes" : {
                        "POSITION" : 0,
                        "NORMAL" : 1,
                        "TEXCOORD_0" : 2
                    },
                    "indices" : 3,
                    "material" : 0
                }
            ]
        },
        {
            "name" : "Curve.005",
            "primitives" : [
                {
                    "attributes" : {
                        "POSITION" : 4,
                        "NORMAL" : 5,
                        "TEXCOORD_0" : 6
                    },
                    "indices" : 7,
                    "material" : 0
                }
            ]
        }
    ],
    "accessors" : [
        {
            "bufferView" : 0,
            "componentType" : 5126,
            "count" : 718,
            "max" : [
                0.1340828388929367,
                0,
                -0.0013583364197984338
            ],
            "min" : [
                -0.13397502899169922,
                -0.05000000074505806,
                -0.2691267132759094
            ],
            "type" : "VEC3"
        },
        {
            "bufferView" : 1,
            "componentType" : 5126,
            "count" : 718,
            "type" : "VEC3"
        },
        {
            "bufferView" : 2,
            "componentType" : 5126,
            "count" : 718,
            "type" : "VEC2"
        },
        {
            "bufferView" : 3,
            "componentType" : 5123,
            "count" : 1440,
            "type" : "SCALAR"
        },
        {
            "bufferView" : 4,
            "componentType" : 5126,
            "count" : 1458,
            "max" : [
                0.0766831710934639,
                0,
                -0.04620899260044098
            ],
            "min" : [
                -0.0882241427898407,
                -0.05000000074505806,
                -0.22715182602405548
            ],
            "type" : "VEC3"
        },
        {
            "bufferView" : 5,
            "componentType" : 5126,
            "count" : 1458,
            "type" : "VEC3"
        },
        {
            "bufferView" : 6,
            "componentType" : 5126,
            "count" : 1458,
            "type" : "VEC2"
        },
        {
            "bufferView" : 7,
            "componentType" : 5123,
            "count" : 2856,
            "type" : "SCALAR"
        }
    ],
    "bufferViews" : [
        {
            "buffer" : 0,
            "byteLength" : 8616,
            "byteOffset" : 0
        },
        {
            "buffer" : 0,
            "byteLength" : 8616,
            "byteOffset" : 8616
        },
        {
            "buffer" : 0,
            "byteLength" : 5744,
            "byteOffset" : 17232
        },
        {
            "buffer" : 0,
            "byteLength" : 2880,
            "byteOffset" : 22976
        },
        {
            "buffer" : 0,
            "byteLength" : 17496,
            "byteOffset" : 25856
        },
        {
            "buffer" : 0,
            "byteLength" : 17496,
            "byteOffset" : 43352
        },
        {
            "buffer" : 0,
            "byteLength" : 11664,
            "byteOffset" : 60848
        },
        {
            "buffer" : 0,
            "byteLength" : 5712,
            "byteOffset" : 72512
        }
    ],
    "buffers" : [
        {
            "byteLength" : 78224,
            "uri" : "data:application/octet-stream;base64,"
        }
    ]
}
