{
    "asset" : {
        "generator" : "Khronos glTF Blender I/O v1.6.16",
        "version" : "2.0"
    },
    "extensionsUsed" : [
        "KHR_lights_punctual"
    ],
    "extensionsRequired" : [
        "KHR_lights_punctual"
    ],
    "extensions" : {
        "KHR_lights_punctual" : {
            "lights" : [
                {
                    "color" : [
                        1,
                        1,
                        1
                    ],
                    "intensity" : 358.280029296875,
                    "spot" : {
                        "innerConeAngle" : 0.23506188157262642,
                        "outerConeAngle" : 0.32986724376678467
                    },
                    "type" : "spot",
                    "range" : 32.91999816894531,
                    "name" : "Spot"
                },
                {
                    "color" : [
                        1,
                        1,
                        1
                    ],
                    "intensity" : 309.8800354003906,
                    "spot" : {
                        "innerConeAngle" : 0.23506188157262642,
                        "outerConeAngle" : 0.32986724376678467
                    },
                    "type" : "spot",
                    "range" : 32.91999816894531,
                    "name" : "Spot.001"
                },
                {
                    "color" : [
                        1,
                        1,
                        1
                    ],
                    "intensity" : 882.4000244140625,
                    "type" : "point",
                    "name" : "Light"
                }
            ]
        }
    },
    "scene" : 0,
    "scenes" : [
        {
            "name" : "Scene",
            "nodes" : [
                1,
                3,
                5,
                6,
                7,
                8
            ]
        }
    ],
    "nodes" : [
        {
            "extensions" : {
                "KHR_lights_punctual" : {
                    "light" : 0
                }
            },
            "name" : "Spot_Orientation",
            "rotation" : [
                -0.7071067690849304,
                0,
                0,
                0.7071067690849304
            ]
        },
        {
            "children" : [
                0
            ],
            "name" : "Spot",
            "rotation" : [
                -0.23391836881637573,
                -0.06441725790500641,
                0.31607764959335327,
                0.917184591293335
            ],
            "scale" : [
                0.26025718450546265,
                0.26025718450546265,
                0.26025718450546265
            ],
            "translation" : [
                -1.4287750720977783,
                1.9343445301055908,
                -1.1604585647583008
            ]
        },
        {
            "extensions" : {
                "KHR_lights_punctual" : {
                    "light" : 1
                }
            },
            "name" : "Spot.001_Orientation",
            "rotation" : [
                -0.7071067690849304,
                0,
                0,
                0.7071067690849304
            ]
        },
        {
            "children" : [
                2
            ],
            "name" : "Spot.001",
            "rotation" : [
                -0.2191748172044754,
                -0.1953984647989273,
                -0.21339240670204163,
                0.9317969083786011
            ],
            "scale" : [
                0.26025718450546265,
                0.26025718450546265,
                0.26025718450546265
            ],
            "translation" : [
                1.120969295501709,
                1.814652681350708,
                -1.0088224411010742
            ]
        },
        {
            "extensions" : {
                "KHR_lights_punctual" : {
                    "light" : 2
                }
            },
            "name" : "Light_Orientation",
            "rotation" : [
                -0.7071067690849304,
                0,
                0,
                0.7071067690849304
            ]
        },
        {
            "children" : [
                4
            ],
            "name" : "Light",
            "rotation" : [
                0.16907575726509094,
                0.7558803558349609,
                -0.27217137813568115,
                0.570947527885437
            ],
            "scale" : [
                1.0478459596633911,
                1.0478459596633911,
                1.0478460788726807
            ],
            "translation" : [
                0.49295228719711304,
                0.4774007797241211,
                1.0174119472503662
            ]
        },
        {
            "name" : "Camera",
            "rotation" : [
                0.483536034822464,
                0.33687159419059753,
                -0.20870360732078552,
                0.7804827094078064
            ],
            "translation" : [
                7.358891487121582,
                4.958309173583984,
                6.925790786743164
            ]
        },
        {
            "name" : "Empty",
            "rotation" : [
                0.5,
                0.5,
                -0.5,
                0.4999999701976776
            ]
        },
        {
            "mesh" : 0,
            "name" : "Curve",
            "rotation" : [
                0.7071068286895752,
                0,
                0,
                0.7071068286895752
            ]
        }
    ],
    "materials" : [
        {
            "doubleSided" : true,
            "name" : "SVGMat.002",
            "pbrMetallicRoughness" : {
                "baseColorFactor" : [
                    0.0666259229183197,
                    0.08228273689746857,
                    0.9046613574028015,
                    1
                ],
                "metallicFactor" : 0.3295454680919647,
                "roughnessFactor" : 0.22045454382896423
            }
        }
    ],
    "meshes" : [
        {
            "name" : "Curve",
            "primitives" : [
                {
                    "attributes" : {
                        "POSITION" : 0,
                        "NORMAL" : 1,
                        "TEXCOORD_0" : 2
                    },
                    "indices" : 3,
                    "material" : 0
                }
            ]
        }
    ],
    "accessors" : [
        {
            "bufferView" : 0,
            "componentType" : 5126,
            "count" : 1737,
            "max" : [
                0.13435260951519012,
                0,
                -0.0013583364197984338
            ],
            "min" : [
                -0.13398505747318268,
                0,
                -0.2693830132484436
            ],
            "type" : "VEC3"
        },
        {
            "bufferView" : 1,
            "componentType" : 5126,
            "count" : 1737,
            "type" : "VEC3"
        },
        {
            "bufferView" : 2,
            "componentType" : 5126,
            "count" : 1737,
            "type" : "VEC2"
        },
        {
            "bufferView" : 3,
            "componentType" : 5123,
            "count" : 3864,
            "type" : "SCALAR"
        }
    ],
    "bufferViews" : [
        {
            "buffer" : 0,
            "byteLength" : 20844,
            "byteOffset" : 0
        },
        {
            "buffer" : 0,
            "byteLength" : 20844,
            "byteOffset" : 20844
        },
        {
            "buffer" : 0,
            "byteLength" : 13896,
            "byteOffset" : 41688
        },
        {
            "buffer" : 0,
            "byteLength" : 7728,
            "byteOffset" : 55584
        }
    ],
    "buffers" : [
        {
            "byteLength" : 63312,
            "uri" : "data:application/octet-stream;base64,"
        }
    ]
}
