{
    "asset" : {
        "generator" : "Khronos glTF Blender I/O v1.6.16",
        "version" : "2.0"
    },
    "extensionsUsed" : [
        "KHR_lights_punctual"
    ],
    "extensionsRequired" : [
        "KHR_lights_punctual"
    ],
    "extensions" : {
        "KHR_lights_punctual" : {
            "lights" : [
                {
                    "color" : [
                        1,
                        1,
                        1
                    ],
                    "intensity" : 358.280029296875,
                    "spot" : {
                        "innerConeAngle" : 0.23506188157262642,
                        "outerConeAngle" : 0.32986724376678467
                    },
                    "type" : "spot",
                    "range" : 32.91999816894531,
                    "name" : "Spot"
                },
                {
                    "color" : [
                        1,
                        1,
                        1
                    ],
                    "intensity" : 309.8800354003906,
                    "spot" : {
                        "innerConeAngle" : 0.23506188157262642,
                        "outerConeAngle" : 0.32986724376678467
                    },
                    "type" : "spot",
                    "range" : 32.91999816894531,
                    "name" : "Spot.001"
                },
                {
                    "color" : [
                        1,
                        1,
                        1
                    ],
                    "intensity" : 882.4000244140625,
                    "type" : "point",
                    "name" : "Light"
                }
            ]
        }
    },
    "scene" : 0,
    "scenes" : [
        {
            "name" : "Scene",
            "nodes" : [
                1,
                3,
                4,
                6,
                7,
                8,
                9,
                10,
                11,
                12,
                13,
                14,
                15
            ]
        }
    ],
    "nodes" : [
        {
            "extensions" : {
                "KHR_lights_punctual" : {
                    "light" : 0
                }
            },
            "name" : "Spot_Orientation",
            "rotation" : [
                -0.7071067690849304,
                0,
                0,
                0.7071067690849304
            ]
        },
        {
            "children" : [
                0
            ],
            "name" : "Spot",
            "rotation" : [
                -0.23391836881637573,
                -0.06441725790500641,
                0.31607764959335327,
                0.917184591293335
            ],
            "scale" : [
                0.26025718450546265,
                0.26025718450546265,
                0.26025718450546265
            ],
            "translation" : [
                -1.4287750720977783,
                1.9343445301055908,
                -1.1604585647583008
            ]
        },
        {
            "extensions" : {
                "KHR_lights_punctual" : {
                    "light" : 1
                }
            },
            "name" : "Spot.001_Orientation",
            "rotation" : [
                -0.7071067690849304,
                0,
                0,
                0.7071067690849304
            ]
        },
        {
            "children" : [
                2
            ],
            "name" : "Spot.001",
            "rotation" : [
                -0.2191748172044754,
                -0.1953984647989273,
                -0.21339240670204163,
                0.9317969083786011
            ],
            "scale" : [
                0.26025718450546265,
                0.26025718450546265,
                0.26025718450546265
            ],
            "translation" : [
                1.120969295501709,
                1.814652681350708,
                -1.0088224411010742
            ]
        },
        {
            "mesh" : 0,
            "name" : "Plane",
            "rotation" : [
                -0.5,
                0.5,
                -0.4999999701976776,
                0.5
            ],
            "scale" : [
                0.013129829429090023,
                0.013129829429090023,
                0.13421820104122162
            ],
            "translation" : [
                0,
                0.013665296137332916,
                0
            ]
        },
        {
            "extensions" : {
                "KHR_lights_punctual" : {
                    "light" : 2
                }
            },
            "name" : "Light_Orientation",
            "rotation" : [
                -0.7071067690849304,
                0,
                0,
                0.7071067690849304
            ]
        },
        {
            "children" : [
                5
            ],
            "name" : "Light",
            "rotation" : [
                0.16907575726509094,
                0.7558803558349609,
                -0.27217137813568115,
                0.570947527885437
            ],
            "scale" : [
                1.0478459596633911,
                1.0478459596633911,
                1.0478460788726807
            ],
            "translation" : [
                0.49295228719711304,
                0.4774007797241211,
                1.0174119472503662
            ]
        },
        {
            "name" : "Camera",
            "rotation" : [
                0.483536034822464,
                0.33687159419059753,
                -0.20870360732078552,
                0.7804827094078064
            ],
            "translation" : [
                7.358891487121582,
                4.958309173583984,
                6.925790786743164
            ]
        },
        {
            "name" : "Empty",
            "rotation" : [
                0.5,
                0.5,
                -0.5,
                0.4999999701976776
            ]
        },
        {
            "mesh" : 1,
            "name" : "Curve",
            "rotation" : [
                0.7071068286895752,
                0,
                0,
                0.7071068286895752
            ]
        },
        {
            "mesh" : 2,
            "name" : "Curve.001",
            "rotation" : [
                0.7071068286895752,
                0,
                0,
                0.7071068286895752
            ]
        },
        {
            "mesh" : 3,
            "name" : "Curve.002",
            "rotation" : [
                0.7071068286895752,
                0,
                0,
                0.7071068286895752
            ]
        },
        {
            "name" : "Curve.003",
            "rotation" : [
                0.7071068286895752,
                0,
                0,
                0.7071068286895752
            ]
        },
        {
            "mesh" : 4,
            "name" : "Curve.004",
            "rotation" : [
                0.7071068286895752,
                0,
                0,
                0.7071068286895752
            ]
        },
        {
            "mesh" : 5,
            "name" : "Curve.005",
            "rotation" : [
                0.7071068286895752,
                0,
                0,
                0.7071068286895752
            ],
            "translation" : [
                0,
                0,
                0.014529364183545113
            ]
        },
        {
            "mesh" : 6,
            "name" : "Curve.006",
            "rotation" : [
                0.7071068286895752,
                0,
                0,
                0.7071068286895752
            ]
        }
    ],
    "materials" : [
        {
            "doubleSided" : true,
            "name" : "SVGMat.002",
            "pbrMetallicRoughness" : {
                "baseColorFactor" : [
                    0.0666259229183197,
                    0.08228273689746857,
                    0.9046613574028015,
                    1
                ],
                "metallicFactor" : 0.3295454680919647,
                "roughnessFactor" : 0.22045454382896423
            }
        }
    ],
    "meshes" : [
        {
            "name" : "Plane.001",
            "primitives" : [
                {
                    "attributes" : {
                        "POSITION" : 0,
                        "NORMAL" : 1,
                        "TEXCOORD_0" : 2
                    },
                    "indices" : 3
                }
            ]
        },
        {
            "name" : "Curve",
            "primitives" : [
                {
                    "attributes" : {
                        "POSITION" : 4,
                        "NORMAL" : 5,
                        "TEXCOORD_0" : 6
                    },
                    "indices" : 7,
                    "material" : 0
                }
            ]
        },
        {
            "name" : "Curve.001",
            "primitives" : [
                {
                    "attributes" : {
                        "POSITION" : 8,
                        "NORMAL" : 9,
                        "TEXCOORD_0" : 10
                    },
                    "indices" : 7,
                    "material" : 0
                }
            ]
        },
        {
            "name" : "Curve.001",
            "primitives" : [
                {
                    "attributes" : {
                        "POSITION" : 8,
                        "NORMAL" : 9,
                        "TEXCOORD_0" : 10
                    },
                    "indices" : 7,
                    "material" : 0
                }
            ]
        },
        {
            "name" : "Curve.003",
            "primitives" : [
                {
                    "attributes" : {
                        "POSITION" : 11,
                        "NORMAL" : 12,
                        "TEXCOORD_0" : 13
                    },
                    "indices" : 14,
                    "material" : 0
                }
            ]
        },
        {
            "name" : "Curve.004",
            "primitives" : [
                {
                    "attributes" : {
                        "POSITION" : 15,
                        "NORMAL" : 16,
                        "TEXCOORD_0" : 17
                    },
                    "indices" : 18,
                    "material" : 0
                }
            ]
        },
        {
            "name" : "Curve.005",
            "primitives" : [
                {
                    "attributes" : {
                        "POSITION" : 19,
                        "NORMAL" : 20,
                        "TEXCOORD_0" : 21
                    },
                    "indices" : 22,
                    "material" : 0
                }
            ]
        }
    ],
    "accessors" : [
        {
            "bufferView" : 0,
            "componentType" : 5126,
            "count" : 26,
            "max" : [
                1,
                8.059847687036381e-07,
                1.0000001192092896
            ],
            "min" : [
                -19.474794387817383,
                -6.096900463875912e-14,
                -1
            ],
            "type" : "VEC3"
        },
        {
            "bufferView" : 1,
            "componentType" : 5126,
            "count" : 26,
            "type" : "VEC3"
        },
        {
            "bufferView" : 2,
            "componentType" : 5126,
            "count" : 26,
            "type" : "VEC2"
        },
        {
            "bufferView" : 3,
            "componentType" : 5123,
            "count" : 42,
            "type" : "SCALAR"
        },
        {
            "bufferView" : 4,
            "componentType" : 5126,
            "count" : 1737,
            "max" : [
                0.13435260951519012,
                0,
                -0.0013583364197984338
            ],
            "min" : [
                -0.13398505747318268,
                0,
                -0.2693830132484436
            ],
            "type" : "VEC3"
        },
        {
            "bufferView" : 5,
            "componentType" : 5126,
            "count" : 1737,
            "type" : "VEC3"
        },
        {
            "bufferView" : 6,
            "componentType" : 5126,
            "count" : 1737,
            "type" : "VEC2"
        },
        {
            "bufferView" : 7,
            "componentType" : 5123,
            "count" : 3864,
            "type" : "SCALAR"
        },
        {
            "bufferView" : 8,
            "componentType" : 5126,
            "count" : 1737,
            "max" : [
                0.13435260951519012,
                0,
                -0.0013583364197984338
            ],
            "min" : [
                -0.13398505747318268,
                0,
                -0.2693830132484436
            ],
            "type" : "VEC3"
        },
        {
            "bufferView" : 9,
            "componentType" : 5126,
            "count" : 1737,
            "type" : "VEC3"
        },
        {
            "bufferView" : 10,
            "componentType" : 5126,
            "count" : 1737,
            "type" : "VEC2"
        },
        {
            "bufferView" : 11,
            "componentType" : 5126,
            "count" : 718,
            "max" : [
                0.1340828388929367,
                0,
                -0.0013583364197984338
            ],
            "min" : [
                -0.13397502899169922,
                -0.05000000074505806,
                -0.2691267132759094
            ],
            "type" : "VEC3"
        },
        {
            "bufferView" : 12,
            "componentType" : 5126,
            "count" : 718,
            "type" : "VEC3"
        },
        {
            "bufferView" : 13,
            "componentType" : 5126,
            "count" : 718,
            "type" : "VEC2"
        },
        {
            "bufferView" : 14,
            "componentType" : 5123,
            "count" : 1440,
            "type" : "SCALAR"
        },
        {
            "bufferView" : 15,
            "componentType" : 5126,
            "count" : 59,
            "max" : [
                0.10857860743999481,
                0,
                -0.027524692937731743
            ],
            "min" : [
                -0.1083192527294159,
                0,
                -0.24325980246067047
            ],
            "type" : "VEC3"
        },
        {
            "bufferView" : 16,
            "componentType" : 5126,
            "count" : 59,
            "type" : "VEC3"
        },
        {
            "bufferView" : 17,
            "componentType" : 5126,
            "count" : 59,
            "type" : "VEC2"
        },
        {
            "bufferView" : 18,
            "componentType" : 5123,
            "count" : 165,
            "type" : "SCALAR"
        },
        {
            "bufferView" : 19,
            "componentType" : 5126,
            "count" : 1458,
            "max" : [
                0.0766831710934639,
                0,
                -0.04620899260044098
            ],
            "min" : [
                -0.0882241427898407,
                -0.05000000074505806,
                -0.22715182602405548
            ],
            "type" : "VEC3"
        },
        {
            "bufferView" : 20,
            "componentType" : 5126,
            "count" : 1458,
            "type" : "VEC3"
        },
        {
            "bufferView" : 21,
            "componentType" : 5126,
            "count" : 1458,
            "type" : "VEC2"
        },
        {
            "bufferView" : 22,
            "componentType" : 5123,
            "count" : 2856,
            "type" : "SCALAR"
        }
    ],
    "bufferViews" : [
        {
            "buffer" : 0,
            "byteLength" : 312,
            "byteOffset" : 0
        },
        {
            "buffer" : 0,
            "byteLength" : 312,
            "byteOffset" : 312
        },
        {
            "buffer" : 0,
            "byteLength" : 208,
            "byteOffset" : 624
        },
        {
            "buffer" : 0,
            "byteLength" : 84,
            "byteOffset" : 832
        },
        {
            "buffer" : 0,
            "byteLength" : 20844,
            "byteOffset" : 916
        },
        {
            "buffer" : 0,
            "byteLength" : 20844,
            "byteOffset" : 21760
        },
        {
            "buffer" : 0,
            "byteLength" : 13896,
            "byteOffset" : 42604
        },
        {
            "buffer" : 0,
            "byteLength" : 7728,
            "byteOffset" : 56500
        },
        {
            "buffer" : 0,
            "byteLength" : 20844,
            "byteOffset" : 64228
        },
        {
            "buffer" : 0,
            "byteLength" : 20844,
            "byteOffset" : 85072
        },
        {
            "buffer" : 0,
            "byteLength" : 13896,
            "byteOffset" : 105916
        },
        {
            "buffer" : 0,
            "byteLength" : 8616,
            "byteOffset" : 119812
        },
        {
            "buffer" : 0,
            "byteLength" : 8616,
            "byteOffset" : 128428
        },
        {
            "buffer" : 0,
            "byteLength" : 5744,
            "byteOffset" : 137044
        },
        {
            "buffer" : 0,
            "byteLength" : 2880,
            "byteOffset" : 142788
        },
        {
            "buffer" : 0,
            "byteLength" : 708,
            "byteOffset" : 145668
        },
        {
            "buffer" : 0,
            "byteLength" : 708,
            "byteOffset" : 146376
        },
        {
            "buffer" : 0,
            "byteLength" : 472,
            "byteOffset" : 147084
        },
        {
            "buffer" : 0,
            "byteLength" : 330,
            "byteOffset" : 147556
        },
        {
            "buffer" : 0,
            "byteLength" : 17496,
            "byteOffset" : 147888
        },
        {
            "buffer" : 0,
            "byteLength" : 17496,
            "byteOffset" : 165384
        },
        {
            "buffer" : 0,
            "byteLength" : 11664,
            "byteOffset" : 182880
        },
        {
            "buffer" : 0,
            "byteLength" : 5712,
            "byteOffset" : 194544
        }
    ],
    "buffers" : [
        {
            "byteLength" : 200256,
            "uri" : "data:application/octet-stream;base64,"
        }
    ]
}
